<svg width="24" height="25" viewBox="0 0 24 25" fill="none" xmlns="http://www.w3.org/2000/svg">
<path d="M19.7897 15.7296C17.7297 17.7796 14.7797 18.4096 12.1897 17.5996L7.47966 22.2996C7.13966 22.6496 6.46966 22.8596 5.98966 22.7896L3.80966 22.4896C3.08966 22.3896 2.41966 21.7096 2.30966 20.9896L2.00966 18.8096C1.93966 18.3296 2.16966 17.6596 2.49966 17.3196L7.19966 12.6196C6.39966 10.0196 7.01966 7.06963 9.07966 5.01963C12.0297 2.06963 16.8197 2.06963 19.7797 5.01963C22.7397 7.96963 22.7397 12.7796 19.7897 15.7296Z" stroke="#9DA4A8" stroke-width="2" stroke-miterlimit="10" stroke-linecap="round" stroke-linejoin="round"/>
<path d="M6.88965 18.29L9.18965 20.59" stroke="#9DA4A8" stroke-width="1.5" stroke-miterlimit="10" stroke-linecap="round" stroke-linejoin="round"/>
<path d="M14.5 11.7998C15.3284 11.7998 16 11.1282 16 10.2998C16 9.47138 15.3284 8.7998 14.5 8.7998C13.6716 8.7998 13 9.47138 13 10.2998C13 11.1282 13.6716 11.7998 14.5 11.7998Z" stroke="#9DA4A8" stroke-width="1.5" stroke-linecap="round" stroke-linejoin="round"/>
</svg>
