<svg width="39" height="36" viewBox="0 0 39 36" fill="none" xmlns="http://www.w3.org/2000/svg">
<path d="M19.6477 9.44238C19.6477 7.59384 18.9268 5.82102 17.6434 4.51391C16.3601 3.2068 14.6195 2.47247 12.8046 2.47247H2.53979V28.6096H14.5154C15.8765 28.6096 17.182 29.1604 18.1445 30.1407C19.107 31.121 19.6477 32.4506 19.6477 33.837M19.6477 9.44238V33.837M19.6477 9.44238C19.6477 7.59384 20.3687 5.82102 21.6521 4.51391C22.9354 3.2068 24.676 2.47247 26.4909 2.47247H36.7557V28.6096H24.7801C23.4189 28.6096 22.1135 29.1604 21.151 30.1407C20.1885 31.121 19.6477 32.4506 19.6477 33.837" stroke="#E7F1A8" stroke-width="3.66599" stroke-linecap="round" stroke-linejoin="round"/>
</svg>
