<svg width="35" height="35" viewBox="0 0 35 35" fill="none" xmlns="http://www.w3.org/2000/svg">
<g clip-path="url(#clip0_38_5360)">
<path d="M17.6477 3.32996C9.77808 3.32996 3.39111 9.71692 3.39111 17.5866C3.39111 25.4562 9.77808 31.8432 17.6477 31.8432C25.5174 31.8432 31.9044 25.4562 31.9044 17.5866C31.9044 9.71692 25.5174 3.32996 17.6477 3.32996ZM17.6477 7.60694C20.0143 7.60694 21.9247 9.51733 21.9247 11.8839C21.9247 14.2505 20.0143 16.1609 17.6477 16.1609C15.2811 16.1609 13.3707 14.2505 13.3707 11.8839C13.3707 9.51733 15.2811 7.60694 17.6477 7.60694ZM17.6477 27.8513C14.0836 27.8513 10.9329 26.0265 9.09376 23.2607C9.13653 20.4236 14.7964 18.8697 17.6477 18.8697C20.4848 18.8697 26.1589 20.4236 26.2017 23.2607C24.3626 26.0265 21.2119 27.8513 17.6477 27.8513Z" fill="#E7F1A8"/>
</g>
<defs>
<clipPath id="clip0_38_5360">
<rect width="34.2159" height="34.2159" fill="white" transform="translate(0.539795 0.478607)"/>
</clipPath>
</defs>
</svg>
