<svg width="35" height="35" viewBox="0 0 35 35" fill="none" xmlns="http://www.w3.org/2000/svg">
<path d="M17.6477 22.0794C20.0098 22.0794 21.9247 20.1645 21.9247 17.8024C21.9247 15.4403 20.0098 13.5254 17.6477 13.5254C15.2856 13.5254 13.3707 15.4403 13.3707 17.8024C13.3707 20.1645 15.2856 22.0794 17.6477 22.0794Z" stroke="#E7F1A8" stroke-width="3.66599" stroke-miterlimit="10" stroke-linecap="round" stroke-linejoin="round"/>
<path d="M3.39111 19.057V16.5478C3.39111 15.0651 4.60293 13.8391 6.09987 13.8391C8.68032 13.8391 9.73531 12.0142 8.43796 9.77594C7.69661 8.49284 8.13857 6.82482 9.43592 6.08347L11.9023 4.67207C13.0286 4.00201 14.4828 4.40119 15.1528 5.52747L15.3096 5.79834C16.5927 8.03663 18.7027 8.03663 20.0001 5.79834L20.1569 5.52747C20.827 4.40119 22.2811 4.00201 23.4074 4.67207L25.8738 6.08347C27.1712 6.82482 27.6131 8.49284 26.8718 9.77594C25.5744 12.0142 26.6294 13.8391 29.2099 13.8391C30.6925 13.8391 31.9186 15.0509 31.9186 16.5478V19.057C31.9186 20.5397 30.7068 21.7658 29.2099 21.7658C26.6294 21.7658 25.5744 23.5906 26.8718 25.8289C27.6131 27.1262 27.1712 28.78 25.8738 29.5214L23.4074 30.9328C22.2811 31.6028 20.827 31.2036 20.1569 30.0774L20.0001 29.8065C18.717 27.5682 16.607 27.5682 15.3096 29.8065L15.1528 30.0774C14.4828 31.2036 13.0286 31.6028 11.9023 30.9328L9.43592 29.5214C8.13857 28.78 7.69661 27.112 8.43796 25.8289C9.73531 23.5906 8.68032 21.7658 6.09987 21.7658C4.60293 21.7658 3.39111 20.5397 3.39111 19.057Z" stroke="#E7F1A8" stroke-width="3.66599" stroke-miterlimit="10" stroke-linecap="round" stroke-linejoin="round"/>
</svg>
