<svg width="28" height="29" viewBox="0 0 28 29" fill="none" xmlns="http://www.w3.org/2000/svg">
<path d="M14.1861 12.8815C14.0695 12.8699 13.9295 12.8699 13.8011 12.8815C11.0245 12.7882 8.81946 10.5132 8.81946 7.7132C8.81946 4.85487 11.1295 2.5332 13.9995 2.5332C16.8578 2.5332 19.1795 4.85487 19.1795 7.7132C19.1678 10.5132 16.9628 12.7882 14.1861 12.8815Z" stroke="#9DA4A8" stroke-width="2" stroke-linecap="round" stroke-linejoin="round"/>
<path d="M8.35297 17.1862C5.52964 19.0762 5.52964 22.1562 8.35297 24.0345C11.5613 26.1812 16.823 26.1812 20.0313 24.0345C22.8546 22.1445 22.8546 19.0645 20.0313 17.1862C16.8346 15.0512 11.573 15.0512 8.35297 17.1862Z" stroke="#9DA4A8" stroke-width="2" stroke-linecap="round" stroke-linejoin="round"/>
</svg>
